<svg width="24.000000" height="14.000000" viewBox="0 0 24 14" fill="none" xmlns="http://www.w3.org/2000/svg" xmlns:xlink="http://www.w3.org/1999/xlink">
	<desc>
			Created with Pixso.
	</desc>
	<defs/>
	<path id="Vector" d="M0.6 0.02C0.39 0.12 0.19 0.31 0.08 0.53C-0.04 0.76 -0.04 1.18 0.08 1.43C0.19 1.66 11.1 13.64 11.39 13.85C11.57 13.99 11.61 14 12 14C12.38 14 12.42 13.99 12.6 13.85C12.89 13.64 23.8 1.66 23.91 1.43C24.03 1.18 24.03 0.76 23.91 0.52C23.79 0.3 23.54 0.08 23.31 0C23.1 -0.07 22.7 -0.04 22.5 0.07C22.42 0.11 20.03 2.69 17.2 5.81C14.36 8.92 12.02 11.46 12 11.46C11.97 11.46 9.63 8.92 6.79 5.81C3.9 2.63 1.57 0.11 1.48 0.07C1.27 -0.05 0.8 -0.06 0.6 0.02Z" fill="#FFFFFF" fill-opacity="1.000000" fill-rule="nonzero"/>
</svg>
