<svg width="22.000000" height="12.000000" viewBox="0 0 22 12" fill="none" xmlns="http://www.w3.org/2000/svg" xmlns:xlink="http://www.w3.org/1999/xlink">
	<desc>
			Created with Pixso.
	</desc>
	<defs/>
	<path id="Union" d="M16.7 1.7C17.09 1.31 17.09 0.68 16.7 0.29C16.31 -0.1 15.68 -0.1 15.29 0.29L6 9.58L1.7 5.29C1.31 4.9 0.68 4.9 0.29 5.29C-0.1 5.68 -0.1 6.31 0.29 6.7L5.29 11.7C5.68 12.09 6.31 12.09 6.7 11.7L16.7 1.7ZM21.7 1.7C22.09 1.31 22.09 0.68 21.7 0.29C21.31 -0.1 20.68 -0.1 20.29 0.29L10.99 9.59C10.6 9.27 10.03 9.3 9.66 9.66C9.27 10.05 9.27 10.69 9.66 11.08L10.29 11.7C10.68 12.09 11.31 12.09 11.7 11.7L21.7 1.7ZM6.7 5.29L7.33 5.91C7.72 6.3 7.72 6.94 7.33 7.33C6.94 7.72 6.3 7.72 5.91 7.33L5.29 6.7C4.9 6.31 4.9 5.68 5.29 5.29C5.68 4.9 6.31 4.9 6.7 5.29Z" fill="#1C2C9C" fill-opacity="1.000000" fill-rule="evenodd"/>
</svg>
